<svg id="Calque_1" data-name="Calque 1" xmlns="http://www.w3.org/2000/svg" viewBox="0 0 1080 1080"><defs><style>.cls-1{fill:#1d73e6;}</style></defs><path class="cls-1" d="M565.9,500.87c-15.16.11-30.33.2-45.49-.05-4.11-.07-5,1.22-5,5.1.19,19.16-.12,38.33.22,57.48.1,5.53-2.19,6.17-6.79,6.18-4.45,0-6.48-.7-6.39-5.92.33-19.16,0-38.33.21-57.49,0-4.16-1.24-5.42-5.42-5.34-14.49.24-29,.27-43.49,0-4.59-.09-5.57,1.53-5.52,5.75.19,18.16.11,36.33.06,54.49,0,9.07,1.32,8.12-8.15,8.49-4.63.18-6-1.18-5.91-5.85.26-19.16,0-38.32.19-57.48,0-4.15-1.25-5.45-5.44-5.38-14.83.23-29.66.29-44.49,0-4.69-.1-5.81,1.24-5.75,5.83.28,19.16.09,38.33.15,57.49,0,3-.19,5.32-4.16,5-2.77-.23-5.57,0-8.94,0V502.74h-5.44c-37.33,0-74.66.1-112-.12-5,0-6.07,1.54-6,6.22q.25,55.24,0,110.48c0,4.85,1.38,6.13,6.18,6.11,49.65-.17,99.3-.1,149-.1H569.86a15.6,15.6,0,0,0,.45-2c0-39.5,0-79,.09-118.48C570.41,501.23,568.87,500.85,565.9,500.87ZM311,571.65h-14.8v-14.8H311Z"/><path class="cls-1" d="M847.17,508.14c0-4.51-1.44-5.51-5.74-5.49-37.5.16-75,.09-112.49.09H723.4v5.76c0,18.49.06,37-.11,55.49,0,1.69-1.34,4.6-2.44,4.8-3.45.63-7.09.23-11.31.23V504.79H655.17V693.32h53.91v-68h23.11c36.5,0,73-.06,109.5.09,4.1,0,5.48-1.06,5.46-5.29Q846.94,564.14,847.17,508.14Zm-55.25,61.32h-14.8v-14.8h14.8Z"/><path class="cls-1" d="M639.34,625.08H585.2V398h54.14Z"/><rect class="cls-1" x="726.09" y="647.9" width="116.86" height="18.46"/><rect class="cls-1" x="257.73" y="446.64" width="38" height="38" transform="translate(410.31 -59.3) rotate(45)"/><rect class="cls-1" x="311.4" y="446.64" width="38" height="38" transform="translate(426.03 -97.24) rotate(45)"/><rect class="cls-1" x="765.52" y="446.64" width="38" height="38" transform="translate(559.04 -418.35) rotate(45)"/></svg>