<svg xmlns="http://www.w3.org/2000/svg" xmlns:xlink="http://www.w3.org/1999/xlink" viewBox="0 0 830 438" width="830" height="438">
  <path transform="translate(276.345 236.595)" fill="#1d73e6" d="M159.6 -62.22C144.4 -62.12 129.2 -62.03 114.1 -62.28C110 -62.35 109.1 -61.06 109.1 -57.17C109.3 -38.01 108.9 -18.84 109.3 0.305C109.4 5.835 107.1 6.475 102.5 6.485C98.05 6.485 96.02 5.785 96.11 0.565C96.44 -18.59 96.11 -37.76 96.32 -56.92C96.32 -61.08 95.07 -62.35 90.89 -62.26C76.4 -62.02 61.89 -61.99 47.4 -62.26C42.81 -62.35 41.83 -60.74 41.88 -56.51C42.07 -38.35 41.99 -20.18 41.94 -2.025C41.94 7.045 43.26 6.095 33.79 6.465C29.16 6.645 27.8 5.285 27.89 0.615C28.15 -18.55 27.89 -37.71 28.08 -56.87C28.08 -61.02 26.83 -62.31 22.64 -62.24C7.805 -62.01 -7.025 -61.95 -21.85 -62.24C-26.55 -62.35 -27.66 -61.01 -27.6 -56.42C-27.32 -37.25 -27.52 -18.08 -27.45 1.075C-27.45 4.075 -27.65 6.395 -31.61 6.075C-34.38 5.845 -37.19 6.075 -40.56 6.075C-40.56 6.075 -40.56 -60.35 -40.56 -60.35C-40.56 -60.35 -45.99 -60.35 -45.99 -60.35C-83.32 -60.36 -120.7 -60.25 -158 -60.47C-163 -60.47 -164.1 -58.94 -164 -54.26C-163.8 -17.43 -163.8 19.4 -164 56.22C-164 61.07 -162.6 62.35 -157.8 62.33C-108.2 62.17 -58.51 62.23 -8.815 62.24C-8.815 62.24 163.5 62.24 163.5 62.24C163.7 61.58 163.9 60.91 164 60.24C164 20.74 164 -18.76 164.1 -58.24C164.1 -61.86 162.5 -62.24 159.6 -62.22ZM-95.35 8.555L-110.1 8.555L-110.1 -6.245L-95.35 -6.245L-95.35 8.555Z"></path>
  <path transform="translate(621.17 271.475)" fill="#1d73e6" d="M96 -89.83C96 -94.35 94.56 -95.34 90.26 -95.32C52.76 -95.16 15.26 -95.24 -22.23 -95.24C-22.23 -95.24 -27.77 -95.24 -27.77 -95.24C-27.77 -95.24 -27.77 -89.47 -27.77 -89.47C-27.77 -70.99 -27.71 -52.47 -27.88 -33.99C-27.88 -32.3 -29.22 -29.39 -30.32 -29.18C-33.77 -28.55 -37.41 -28.95 -41.63 -28.95C-41.63 -28.95 -41.63 -93.18 -41.63 -93.18L-96 -93.18L-96 95.35L-42.09 95.35L-42.09 27.34C-42.09 27.34 -18.98 27.34 -18.98 27.34C17.52 27.34 54.02 27.28 90.52 27.43C94.62 27.43 96 26.38 95.98 22.15C95.84 -15.17 95.85 -52.5 96 -89.83M40.75 -28.51L25.95 -28.51L25.95 -43.31L40.75 -43.31L40.75 -28.51Z"></path>
  <path transform="translate(482.27 185.04)" fill="#1d73e6" d="M27.07 113.5L-27.07 113.5L-27.07 -113.5L27.07 -113.5L27.07 113.5Z"></path>
  <path transform="translate(654.52 330.63)" fill="#1d73e6" d="M-58.43 -9.23L58.43 -9.23L58.43 9.23L-58.43 9.23L-58.43 -9.23Z"></path>
  <path transform="matrix(0.707107 0.707107 -0.707107 0.707107 146.73 139.135)" fill="#1d73e6" d="M-19 -19L19 -19L19 19L-19 19L-19 -19Z"></path>
  <path transform="matrix(0.707107 0.707107 -0.707107 0.707107 200.401 139.145)" fill="#1d73e6" d="M-19 -19L19 -19L19 19L-19 19L-19 -19Z"></path>
  <path transform="matrix(0.707107 0.707107 -0.707107 0.707107 654.522 139.147)" fill="#1d73e6" d="M-19 -19L19 -19L19 19L-19 19L-19 -19Z"></path>
</svg>